<?xml version="1.0" encoding="utf-8"?>
<svg version="1.1" id="Layer_1"
xmlns="http://www.w3.org/2000/svg"
xmlns:xlink="http://www.w3.org/1999/xlink"
width="2000px" height="550px"
xml:space="preserve">
<g id="PathID_1" transform="matrix(6.32218, 0, 0, 6.32218, 472.8, 380.6)" opacity="1">
<path style="fill:#FA1E28;fill-opacity:1" d="M7.05 -4.85Q1.7 -10.05 1.7 -18.05Q1.7 -26.05 7.05 -31.25Q12.4 -36.45 20.15 -36.45Q26.15 -36.45 30.8 -33.25Q35.45 -30.1 37.3 -24.45L26.85 -24.45Q24.8 -28.4 20.3 -28.4Q15.8 -28.4 13.2 -25.55Q10.6 -22.75 10.6 -18.05Q10.6 -13.35 13.2 -10.5Q15.8 -7.7 20.3 -7.7Q24.8 -7.7 26.85 -11.65L37.3 -11.65Q35.45 -6 30.8 -2.8Q26.15 0.35 20.15 0.35Q12.4 0.35 7.05 -4.85" />
</g>
<g id="PathID_2" transform="matrix(6.32218, 0, 0, 6.32218, 472.8, 380.6)" opacity="1">
</g>
<g id="PathID_3" transform="matrix(6.32218, 0, 0, 6.32218, 719.75, 380.6)" opacity="1">
<path style="fill:#FA1E28;fill-opacity:1" d="M20.95 -8.95Q22.7 -10.8 22.7 -14.25Q22.7 -17.75 20.9 -19.55Q19.1 -21.4 16.65 -21.4Q14.2 -21.4 12.45 -19.55Q10.7 -17.75 10.7 -14.25Q10.7 -10.8 12.5 -8.95Q14.3 -7.1 16.75 -7.1Q19.25 -7.1 20.95 -8.95M6.1 -3.65Q1.75 -7.7 1.75 -14.3Q1.75 -20.9 6.05 -24.85Q10.35 -28.85 16.7 -28.85Q23.05 -28.85 27.3 -24.85Q31.6 -20.9 31.6 -14.3Q31.6 -7.7 27.35 -3.65Q23.1 0.4 16.75 0.4Q10.4 0.4 6.1 -3.65" />
</g>
<g id="PathID_4" transform="matrix(6.32218, 0, 0, 6.32218, 719.75, 380.6)" opacity="1">
</g>
<g id="PathID_5" transform="matrix(6.32218, 0, 0, 6.32218, 931.15, 380.6)" opacity="1">
<path style="fill:#FA1E28;fill-opacity:1" d="M21.2 -9.05Q23.1 -10.9 23.1 -14.25Q23.1 -17.65 21.2 -19.45Q19.35 -21.25 16.85 -21.25Q14.4 -21.25 12.5 -19.4Q10.6 -17.6 10.6 -14.2Q10.6 -10.85 12.5 -9Q14.4 -7.2 16.85 -7.2Q19.35 -7.2 21.2 -9.05M5.5 -3.7Q1.7 -7.8 1.7 -14.2Q1.7 -20.6 5.5 -24.7Q9.3 -28.85 14.75 -28.85Q20.2 -28.85 23.1 -24.8L23.1 -37.85L31.85 -37.85L31.85 0L23.1 0L23.1 -4.1Q19.95 0.4 14.6 0.4Q9.3 0.4 5.5 -3.7" />
</g>
<g id="PathID_6" transform="matrix(6.32218, 0, 0, 6.32218, 931.15, 380.6)" opacity="1">
</g>
<g id="PathID_7" transform="matrix(6.32218, 0, 0, 6.32218, 1157.1, 380.6)" opacity="1">
<path style="fill:#FA1E28;fill-opacity:1" d="M15.95 0.4Q9.7 0.4 5.7 -3.6Q1.7 -7.65 1.7 -14.3Q1.7 -20.95 5.65 -24.9Q9.65 -28.85 15.95 -28.85Q22.25 -28.85 26.4 -24.95Q30.55 -21.05 30.55 -14.15Q30.55 -12.65 30.35 -11.4L10.7 -11.4Q10.95 -9.5 12.35 -8.3Q13.8 -7.1 15.45 -7.1Q17.15 -7.1 17.95 -7.4Q18.75 -7.75 19.15 -8.05Q19.55 -8.4 20.15 -9.2L29.6 -9.2Q28.4 -4.9 24.7 -2.25Q21 0.4 15.95 0.4M21.45 -16.85Q21.2 -18.85 19.65 -20.1Q18.15 -21.4 16.05 -21.4Q13.95 -21.4 12.5 -20.1Q11.1 -18.85 10.75 -16.85L21.45 -16.85" />
</g>
<g id="PathID_8" transform="matrix(6.32218, 0, 0, 6.32218, 1157.1, 380.6)" opacity="1">
</g>
<g id="PathID_9" transform="matrix(6.32218, 0, 0, 6.32218, 1361.35, 380.6)" opacity="1">
<path style="fill:#FA1E28;fill-opacity:1" d="M16.3 -28.55L16.3 -21.25L12.65 -21.25L12.65 0L3.9 0L3.9 -21.25L1.25 -21.25L1.25 -28.55L3.9 -28.55L3.9 -29.6Q3.9 -35.05 6.8 -37.55Q9.7 -40.05 15.9 -40.05L15.9 -32.65Q14.15 -32.65 13.4 -31.95Q12.65 -31.3 12.65 -29.6L12.65 -28.55L16.3 -28.55" />
</g>
<g id="PathID_10" transform="matrix(6.32218, 0, 0, 6.32218, 1361.35, 380.6)" opacity="1">
</g>
<g id="PathID_11" transform="matrix(6.32218, 0, 0, 6.32218, 1469.75, 380.6)" opacity="1">
<path style="fill:#FA1E28;fill-opacity:1" d="M11.3 -0.55L0.2 -28.55L10.1 -28.55L16.45 -9.85L23.4 -28.55L32.6 -28.55L14.35 13.65L5.2 13.65L11.3 -0.55" />
</g>
<g id="PathID_12" transform="matrix(6.32218, 0, 0, 6.32218, 1469.75, 380.6)" opacity="1">
</g>
<g id="PathID_13" transform="matrix(6.32218, 0, 0, 6.32218, 1676.95, 380.6)" opacity="1">
<path style="fill:#FA1E28;fill-opacity:1" d="M12.55 -28.55L12.55 -24.35Q15.3 -28.85 21.2 -28.85Q26.15 -28.85 29.2 -25.55Q32.25 -22.3 32.25 -16.65L32.25 0L23.55 0L23.55 -15.5Q23.55 -18.25 22.05 -19.75Q20.6 -21.25 18.05 -21.25Q15.5 -21.25 14 -19.75Q12.55 -18.25 12.55 -15.5L12.55 0L3.8 0L3.8 -28.55L12.55 -28.55" />
</g>
<g id="PathID_14" transform="matrix(6.32218, 0, 0, 6.32218, 1676.95, 380.6)" opacity="1">
</g>
<filter id="filter7" x="-0.577191" y="-0.577191" width="2.48515" height="2.43271" >
<feComponentTransfer in="SourceGraphic">
	<feFuncR type="linear" slope="0"/>
	<feFuncG type="linear" slope="0"/>
	<feFuncB type="linear" slope="0"/>
</feComponentTransfer>
<feGaussianBlur stdDeviation="3.4 3.4" />
<feOffset result="1" dx="-24.5746" dy="-17.2073"/>
<feComponentTransfer in="SourceGraphic">
	<feFuncR type="linear" slope="0"/>
	<feFuncG type="linear" slope="0"/>
	<feFuncB type="linear" slope="0"/>
</feComponentTransfer>
<feGaussianBlur stdDeviation="3.4 3.4" />
<feOffset result="2" dx="24.5746" dy="17.2073"/>
<feComposite  in="1" in2="2" operator="arithmetic" k2="1" k3="-1"/>
<feComponentTransfer result="3">
	<feFuncR type="linear" Ue="0" intercept="1"/>
	<feFuncG type="linear" Ue="0" intercept="0.419608"/>
	<feFuncB type="linear" Ue="0" intercept="0.447059"/>
	<feFuncA type="linear" xh="0" slope="0.410156"/>
</feComponentTransfer>
<feComposite  in="2" in2="1" operator="arithmetic" k2="1" k3="-1"/>
<feComponentTransfer result="4">
	<feFuncR type="linear" Ue="0" intercept="0.580392"/>
	<feFuncG type="linear" Ue="0" intercept="0.0666667"/>
	<feFuncB type="linear" Ue="0" intercept="0.0941176"/>
	<feFuncA type="linear" xh="0" slope="0.410156"/>
</feComponentTransfer>
<feComposite result="5"  in="3" in2="4" operator="arithmetic" k2="1" k3="1"/>
<feComposite result="6"  in="5" in2="SourceGraphic" operator="atop"/>
</filter>
<g style="filter:url(#filter7);">
<g id="PathID_15" transform="matrix(3.46992, -0.0350961, 0, 3.05573, 277.65, 199.2)" opacity="1">
<path style="fill:#FA1E28;fill-opacity:1" d="M23.6 -19.75Q23.6 -16 20.6 -13.55Q18.75 -11.95 15.6 -11.6L10.05 -11.35Q-1.35 -10.6 -8.05 -4.5Q-14.45 1.3 -14.45 9.9Q-14.45 15.75 -10.2 20.8Q-6.1 25.7 0.75 28.6Q-9.45 26.2 -16.5 18.3Q-23.55 10.5 -23.55 1.55Q-23.55 -9.75 -14.55 -18.2Q-5.3 -26.9 9.3 -28.35Q12.65 -28.7 14.85 -28.35Q16.9 -28 19.4 -26.95Q21.3 -25.85 22.4 -23.95Q23.6 -22.05 23.6 -19.75" />
</g>
<g id="PathID_16" transform="matrix(3.46992, -0.0350961, 0, 3.05573, 277.65, 199.2)" opacity="1">
</g>
</g>
<filter id="filter14" x="-0.577191" y="-0.577191" width="2.4174" height="2.38051" >
<feComponentTransfer in="SourceGraphic">
	<feFuncR type="linear" slope="0"/>
	<feFuncG type="linear" slope="0"/>
	<feFuncB type="linear" slope="0"/>
</feComponentTransfer>
<feGaussianBlur stdDeviation="3.4 3.4" />
<feOffset result="8" dx="-24.5746" dy="-17.2073"/>
<feComponentTransfer in="SourceGraphic">
	<feFuncR type="linear" slope="0"/>
	<feFuncG type="linear" slope="0"/>
	<feFuncB type="linear" slope="0"/>
</feComponentTransfer>
<feGaussianBlur stdDeviation="3.4 3.4" />
<feOffset result="9" dx="24.5746" dy="17.2073"/>
<feComposite  in="8" in2="9" operator="arithmetic" k2="1" k3="-1"/>
<feComponentTransfer result="10">
	<feFuncR type="linear" Ue="0" intercept="1"/>
	<feFuncG type="linear" Ue="0" intercept="0.615686"/>
	<feFuncB type="linear" Ue="0" intercept="0.509804"/>
	<feFuncA type="linear" xh="0" slope="0.410156"/>
</feComponentTransfer>
<feComposite  in="9" in2="8" operator="arithmetic" k2="1" k3="-1"/>
<feComponentTransfer result="11">
	<feFuncR type="linear" Ue="0" intercept="0.560784"/>
	<feFuncG type="linear" Ue="0" intercept="0.211765"/>
	<feFuncB type="linear" Ue="0" intercept="0.117647"/>
	<feFuncA type="linear" xh="0" slope="0.410156"/>
</feComponentTransfer>
<feComposite result="12"  in="10" in2="11" operator="arithmetic" k2="1" k3="1"/>
<feComposite result="13"  in="12" in2="SourceGraphic" operator="atop"/>
</filter>
<g style="filter:url(#filter14);">
<g id="PathID_17" transform="matrix(7.79558, 0, 0, 9.04537, 276.45, 286.3)" opacity="1">
<path style="fill:#F55E33;fill-opacity:1" d="M9.65 3.55Q12.45 3.6 14 4.2Q16.2 5.2 17.6 7.2Q19.05 9.3 19.05 11.8Q19.05 16.1 15.45 18.7Q11.7 21.2 5 20.55Q-0.05 19.9 -5 18.3Q-11.8 15.65 -15.5 10.75Q-19 6 -19 -0.1Q-19 -8.65 -14.2 -13.95Q-9.2 -19.45 0.4 -20.65Q-6.2 -19.5 -10 -16.4Q-13.9 -13.15 -13.9 -8.45Q-13.9 1.5 5.15 3.5L9.65 3.55" />
</g>
<g id="PathID_18" transform="matrix(7.79558, 0, 0, 9.04537, 276.45, 286.3)" opacity="1">
</g>
</g>
</svg>
