<?xml version="1.0" encoding="utf-8"?>
<svg version="1.1" id="Layer_1"
xmlns="http://www.w3.org/2000/svg"
xmlns:xlink="http://www.w3.org/1999/xlink"
width="1450px" height="440px"
xml:space="preserve">
<g id="PathID_19" transform="matrix(6.32218, 0, 0, 6.32218, 100.4, 334.65)" opacity="1">
<path style="fill:#100000;fill-opacity:1" d="M37.05 -37.15L37.05 -30.7L9.35 -30.7L9.35 -21.75L31.65 -21.75L31.65 -15.35L9.35 -15.35L9.35 0L2.9 0L2.9 -37.15L37.05 -37.15" />
</g>
<g id="PathID_20" transform="matrix(6.32218, 0, 0, 6.32218, 100.4, 334.65)" opacity="1">
</g>
<g id="PathID_21" transform="matrix(6.32218, 0, 0, 6.32218, 334.4, 334.65)" opacity="1">
<path style="fill:#100000;fill-opacity:1" d="M2.6 -30.1L9.05 -30.1L9.05 0L2.6 0L2.6 -30.1M9.05 -39.65L9.05 -33.2L2.6 -33.2L2.6 -39.65L9.05 -39.65" />
</g>
<g id="PathID_22" transform="matrix(6.32218, 0, 0, 6.32218, 334.4, 334.65)" opacity="1">
</g>
<g id="PathID_23" transform="matrix(6.32218, 0, 0, 6.32218, 401.75, 334.65)" opacity="1">
<path style="fill:#100000;fill-opacity:1" d="M33.45 -30.1L33.45 -28.7L21.9 -15.3L33.45 -1.4L33.45 0L26.25 0L17.85 -10.6L9.5 0L2.3 0L2.3 -1.4L13.8 -15.3L2.3 -28.65L2.3 -30.1L9.45 -30.1L17.85 -20L26.25 -30.1L33.45 -30.1" />
</g>
<g id="PathID_24" transform="matrix(6.32218, 0, 0, 6.32218, 401.75, 334.65)" opacity="1">
</g>
<g id="PathID_25" transform="matrix(6.32218, 0, 0, 6.32218, 619.7, 334.4)" opacity="1">
<path style="fill:#FA1E28;fill-opacity:1" d="M26.15 -30.1Q27.6 -30.1 28.9 -29.55Q30.15 -29 31.15 -28.05Q32.1 -27.1 32.65 -25.8Q33.2 -24.5 33.2 -23.1L33.2 -11.85L9 -11.85L9 -7Q9 -6.75 9.15 -6.6Q9.35 -6.4 9.55 -6.4L33.2 -6.4L33.2 0L9.55 0Q8.1 0 6.8 -0.55Q5.55 -1.05 4.6 -2.05Q3.6 -3 3.1 -4.25Q2.55 -5.55 2.55 -7L2.55 -23.1Q2.55 -24.55 3.1 -25.8Q3.6 -27.1 4.6 -28.05Q5.55 -29 6.85 -29.55Q8.1 -30.1 9.55 -30.1L26.15 -30.1M26.75 -18.25L26.75 -23.1Q26.75 -23.3 26.55 -23.5Q26.35 -23.7 26.15 -23.7L9.55 -23.7Q9.35 -23.7 9.15 -23.5Q9 -23.35 9 -23.1L9 -18.25L26.75 -18.25" />
</g>
<g id="PathID_26" transform="matrix(6.32218, 0, 0, 6.32218, 619.7, 334.4)" opacity="1">
</g>
<g id="PathID_27" transform="matrix(6.32218, 0, 0, 6.32218, 844, 334.4)" opacity="1">
<path style="fill:#FA1E28;fill-opacity:1" d="M26.3 -30.1Q27.75 -30.1 29.05 -29.55Q30.3 -29 31.3 -28.05Q32.25 -27.1 32.8 -25.8Q33.35 -24.5 33.35 -23.1L33.35 0L26.9 0L26.9 -23.1Q26.9 -23.3 26.7 -23.5Q26.5 -23.7 26.3 -23.7L9.7 -23.7Q9.5 -23.7 9.3 -23.5Q9.15 -23.35 9.15 -23.1L9.15 0L2.7 0L2.7 -30.1L26.3 -30.1" />
</g>
<g id="PathID_28" transform="matrix(6.32218, 0, 0, 6.32218, 844, 334.4)" opacity="1">
</g>
<g id="PathID_29" transform="matrix(6.32218, 0, 0, 6.32218, 1069.6, 334.4)" opacity="1">
<path style="fill:#FA1E28;fill-opacity:1" d="M2.6 -30.1L9.05 -30.1L9.05 0L2.6 0L2.6 -30.1M9.05 -39.65L9.05 -33.2L2.6 -33.2L2.6 -39.65L9.05 -39.65" />
</g>
<g id="PathID_30" transform="matrix(6.32218, 0, 0, 6.32218, 1069.6, 334.4)" opacity="1">
</g>
<g id="PathID_31" transform="matrix(6.32218, 0, 0, 6.32218, 1136.95, 334.4)" opacity="1">
<path style="fill:#FA1E28;fill-opacity:1" d="M33.45 -30.1L33.45 -28.7L21.9 -15.3L33.45 -1.4L33.45 0L26.25 0L17.85 -10.6L9.5 0L2.3 0L2.3 -1.4L13.8 -15.3L2.3 -28.65L2.3 -30.1L9.45 -30.1L17.85 -20L26.25 -30.1L33.45 -30.1" />
</g>
<g id="PathID_32" transform="matrix(6.32218, 0, 0, 6.32218, 1136.95, 334.4)" opacity="1">
</g>
</svg>
