<?xml version="1.0" encoding="utf-8"?>
<svg version="1.1" id="Layer_1"
xmlns="http://www.w3.org/2000/svg"
xmlns:xlink="http://www.w3.org/1999/xlink"
width="550px" height="400px"
xml:space="preserve">
<g id="PathID_1" transform="matrix(1.02995, 0, 0, 1.02995, 274.2, 189.05)" opacity="1">
<path style="fill:#FF0505;fill-opacity:1" d="M48.45 -114.6Q70.8 -105.15 88 -87.9L88.05 -87.9Q105.2 -70.75 114.7 -48.35Q124.45 -25.25 124.45 0.05Q124.45 25.35 114.7 48.5Q105.25 70.8 88.05 88.05Q70.8 105.25 48.45 114.7Q25.3 124.45 0 124.45Q-25.3 124.45 -48.4 114.7Q-70.75 105.25 -87.95 88.05Q-105.2 70.8 -114.6 48.5Q-124.45 25.35 -124.45 0.05Q-124.45 -25.25 -114.6 -48.35Q-105.2 -70.7 -87.95 -87.9Q-70.75 -105.15 -48.4 -114.6Q-25.3 -124.4 0 -124.4Q25.3 -124.4 48.45 -114.6" />
</g>
<g id="PathID_2" transform="matrix(1.02995, 0, 0, 1.02995, 274.2, 189.05)" opacity="1">
</g>
<g id="PathID_3" transform="matrix(1.00214, 0, 0, 1.00214, 274.2, 189.05)" opacity="1">
<path style="fill:#FFFFFF;fill-opacity:1" d="M48.45 -114.6Q70.8 -105.15 88 -87.9L88.05 -87.9Q105.2 -70.75 114.7 -48.35Q124.45 -25.25 124.45 0.05Q124.45 25.35 114.7 48.5Q105.25 70.8 88.05 88.05Q70.8 105.25 48.45 114.7Q25.3 124.45 0 124.45Q-25.3 124.45 -48.4 114.7Q-70.75 105.25 -87.95 88.05Q-105.2 70.8 -114.6 48.5Q-124.45 25.35 -124.45 0.05Q-124.45 -25.25 -114.6 -48.35Q-105.2 -70.7 -87.95 -87.9Q-70.75 -105.15 -48.4 -114.6Q-25.3 -124.4 0 -124.4Q25.3 -124.4 48.45 -114.6" />
</g>
<g id="PathID_4" transform="matrix(1.00214, 0, 0, 1.00214, 274.2, 189.05)" opacity="1">
</g>
<g id="PathID_5" transform="matrix(0.65579, 0, 0, 0.65579, 274.2, 187.85)" opacity="1">
<path style="fill:#010203;fill-opacity:0" d="M48.45 -114.6Q70.8 -105.15 88 -87.9L88.05 -87.9Q105.2 -70.75 114.7 -48.35Q124.45 -25.25 124.45 0.05Q124.45 25.35 114.7 48.5Q105.25 70.8 88.05 88.05Q70.8 105.25 48.45 114.7Q25.3 124.45 0 124.45Q-25.3 124.45 -48.4 114.7Q-70.75 105.25 -87.95 88.05Q-105.2 70.8 -114.6 48.5Q-124.45 25.35 -124.45 0.05Q-124.45 -25.25 -114.6 -48.35Q-105.2 -70.7 -87.95 -87.9Q-70.75 -105.15 -48.4 -114.6Q-25.3 -124.4 0 -124.4Q25.3 -124.4 48.45 -114.6" />
</g>
<g id="PathID_6" transform="matrix(0.65579, 0, 0, 0.65579, 274.2, 187.85)" opacity="1">
<path style="fill:none;stroke-width:2.6;stroke-linecap:round;stroke-linejoin:round;stroke-miterlimit:3;stroke:#FF0505;stroke-opacity:1" d="M0 -124.35Q-25.25 -124.35 -48.35 -114.6Q-70.7 -105.15 -87.95 -87.85Q-105.15 -70.7 -114.6 -48.35Q-124.45 -25.25 -124.45 0Q-124.45 25.35 -114.6 48.5Q-105.15 70.8 -87.95 88Q-70.7 105.25 -48.35 114.7Q-25.25 124.45 0 124.45Q25.25 124.45 48.4 114.7Q70.75 105.25 88 88Q105.2 70.8 114.65 48.5Q124.45 25.35 124.45 0Q124.45 -25.25 114.65 -48.35Q105.15 -70.7 88 -87.85Q70.75 -105.15 48.4 -114.6Q25.25 -124.35 0 -124.35z" />
</g>
<g id="PathID_7" transform="matrix(0.142052, 0.495394, -0.495394, 0.142052, 156.45, 210.95)" opacity="1">
<path style="fill:#FF0000;fill-opacity:1" d="M2.35 -11.8L6.95 -12.2Q7.25 -9.45 8.4 -7.65Q9.6 -5.9 12.1 -4.8Q14.6 -3.75 17.7 -3.75Q20.45 -3.75 22.55 -4.55Q24.65 -5.4 25.7 -6.8Q26.75 -8.25 26.75 -9.95Q26.75 -11.65 25.75 -12.9Q24.75 -14.2 22.45 -15.1Q21 -15.65 15.95 -16.85Q10.95 -18.1 8.95 -19.15Q6.3 -20.55 5 -22.6Q3.75 -24.65 3.75 -27.15Q3.75 -29.95 5.3 -32.35Q6.85 -34.75 9.85 -36Q12.9 -37.3 16.6 -37.3Q20.65 -37.3 23.75 -35.95Q26.85 -34.65 28.5 -32.1Q30.2 -29.55 30.35 -26.35L25.7 -26Q25.3 -29.4 23.15 -31.15Q21 -32.95 16.8 -32.95Q12.45 -32.95 10.45 -31.3Q8.45 -29.7 8.45 -27.45Q8.45 -25.45 9.85 -24.2Q11.25 -22.95 17.1 -21.6Q23 -20.25 25.2 -19.25Q28.4 -17.8 29.9 -15.5Q31.45 -13.25 31.45 -10.35Q31.45 -7.4 29.75 -4.8Q28.1 -2.25 24.95 -0.8Q21.85 0.6 17.9 0.6Q12.95 0.6 9.6 -0.85Q6.25 -2.3 4.35 -5.2Q2.45 -8.1 2.35 -11.8" />
</g>
<g id="PathID_8" transform="matrix(0.142052, 0.495394, -0.495394, 0.142052, 156.45, 210.95)" opacity="1">
</g>
<g id="PathID_9" transform="matrix(0.209615, 0.470803, -0.470803, 0.209615, 162.3, 231.2)" opacity="1">
<path style="fill:#FF0000;fill-opacity:1" d="M4.8 0L4.8 -36.65L9.65 -36.65L9.65 0L4.8 0" />
</g>
<g id="PathID_10" transform="matrix(0.209615, 0.470803, -0.470803, 0.209615, 162.3, 231.2)" opacity="1">
</g>
<g id="PathID_11" transform="matrix(0.257679, 0.446313, -0.446313, 0.257679, 166.6, 240.75)" opacity="1">
<path style="fill:#FF0000;fill-opacity:1" d="M3.75 0L3.75 -36.65L8.6 -36.65L8.6 -4.35L26.65 -4.35L26.65 0L3.75 0" />
</g>
<g id="PathID_12" transform="matrix(0.257679, 0.446313, -0.446313, 0.257679, 166.6, 240.75)" opacity="1">
</g>
<g id="PathID_13" transform="matrix(0.31015, 0.411583, -0.411583, 0.31015, 175.6, 256.1)" opacity="1">
<path style="fill:#FF0000;fill-opacity:1" d="M4.8 0L4.8 -36.65L9.65 -36.65L9.65 0L4.8 0" />
</g>
<g id="PathID_14" transform="matrix(0.31015, 0.411583, -0.411583, 0.31015, 175.6, 256.1)" opacity="1">
</g>
<g id="PathID_15" transform="matrix(0.370717, 0.357998, -0.357998, 0.370717, 182.6, 265)" opacity="1">
<path style="fill:#FF0000;fill-opacity:1" d="M21.1 -14.35L21.1 -18.7L36.65 -18.7L36.65 -5.1Q33.05 -2.25 29.25 -0.8Q25.45 0.6 21.45 0.6Q16.05 0.6 11.65 -1.7Q7.25 -4 5 -8.35Q2.75 -12.75 2.75 -18.15Q2.75 -23.5 4.95 -28.15Q7.2 -32.8 11.4 -35.05Q15.6 -37.3 21.1 -37.3Q25.05 -37.3 28.25 -36Q31.5 -34.7 33.3 -32.4Q35.15 -30.1 36.1 -26.4L31.7 -25.2Q30.85 -28 29.6 -29.6Q28.4 -31.2 26.1 -32.15Q23.85 -33.15 21.1 -33.15Q17.8 -33.15 15.35 -32.1Q12.95 -31.1 11.45 -29.45Q9.95 -27.8 9.15 -25.8Q7.75 -22.4 7.75 -18.45Q7.75 -13.55 9.4 -10.25Q11.1 -6.95 14.3 -5.35Q17.55 -3.75 21.2 -3.75Q24.35 -3.75 27.35 -4.95Q30.35 -6.15 31.9 -7.5L31.9 -14.35L21.1 -14.35" />
</g>
<g id="PathID_16" transform="matrix(0.370717, 0.357998, -0.357998, 0.370717, 182.6, 265)" opacity="1">
</g>
<g id="PathID_17" transform="matrix(0.437048, 0.273098, -0.273098, 0.437048, 201.6, 282.95)" opacity="1">
<path style="fill:#FF0000;fill-opacity:1" d="M28 -36.65L32.85 -36.65L32.85 -15.45Q32.85 -9.95 31.6 -6.7Q30.35 -3.45 27.05 -1.4Q23.8 0.6 18.5 0.6Q13.35 0.6 10.05 -1.15Q6.8 -2.9 5.4 -6.25Q4.05 -9.65 4.05 -15.45L4.05 -36.65L8.9 -36.65L8.9 -15.5Q8.9 -10.75 9.75 -8.45Q10.65 -6.2 12.8 -5Q14.95 -3.8 18.1 -3.8Q23.45 -3.8 25.7 -6.2Q28 -8.6 28 -15.5L28 -36.65" />
</g>
<g id="PathID_18" transform="matrix(0.437048, 0.273098, -0.273098, 0.437048, 201.6, 282.95)" opacity="1">
</g>
<g id="PathID_19" transform="matrix(0.484278, 0.176263, -0.176263, 0.484278, 222.5, 295.55)" opacity="1">
<path style="fill:#FF0000;fill-opacity:1" d="M4.05 0L4.05 -36.65L20.3 -36.65Q25.2 -36.65 27.75 -35.65Q30.3 -34.65 31.8 -32.15Q33.35 -29.65 33.35 -26.65Q33.35 -22.75 30.8 -20.05Q28.3 -17.4 23 -16.7Q24.9 -15.75 25.9 -14.85Q28.05 -12.9 29.95 -9.95L36.3 0L30.25 0L25.4 -7.6Q23.25 -10.9 21.85 -12.65Q20.5 -14.4 19.4 -15.1Q18.35 -15.8 17.2 -16.1Q16.4 -16.3 14.5 -16.3L8.9 -16.3L8.9 0L4.05 0M8.9 -20.5L19.3 -20.5Q22.65 -20.5 24.5 -21.15Q26.4 -21.85 27.35 -23.35Q28.35 -24.85 28.35 -26.65Q28.35 -29.25 26.45 -30.9Q24.55 -32.6 20.5 -32.6L8.9 -32.6L8.9 -20.5" />
</g>
<g id="PathID_20" transform="matrix(0.484278, 0.176263, -0.176263, 0.484278, 222.5, 295.55)" opacity="1">
</g>
<g id="PathID_21" transform="matrix(0.504096, 0.107149, -0.107149, 0.504096, 243.9, 303.45)" opacity="1">
<path style="fill:#FF0000;fill-opacity:1" d="M4.8 0L4.8 -36.65L9.65 -36.65L9.65 0L4.8 0" />
</g>
<g id="PathID_22" transform="matrix(0.504096, 0.107149, -0.107149, 0.504096, 243.9, 303.45)" opacity="1">
</g>
<g id="PathID_23" transform="matrix(0.510342, 0.071724, -0.071724, 0.510342, 253.1, 305.4)" opacity="1">
<path style="fill:#FF0000;fill-opacity:1" d="M4.55 0L4.55 -5.15L9.7 -5.15L9.7 0Q9.7 2.85 8.65 4.55Q7.65 6.3 5.5 7.25L4.25 5.3Q5.65 4.7 6.3 3.5Q7 2.3 7.1 0L4.55 0" />
</g>
<g id="PathID_24" transform="matrix(0.510342, 0.071724, -0.071724, 0.510342, 253.1, 305.4)" opacity="1">
</g>
<g id="PathID_25" transform="matrix(0.515279, -0.00899423, 0.00899423, 0.515279, 264.95, 306.65)" opacity="1">
<path style="fill:#FF0000;fill-opacity:1" d="M10.3 0L0.65 -36.65L5.65 -36.65L11.2 -12.6Q12.1 -8.85 12.75 -5.1L14.4 -11.85L21.4 -36.65L27.25 -36.65L32.5 -18.1Q34.45 -11.2 35.35 -5.1L37.15 -13.05L42.95 -36.65L47.85 -36.65L37.75 0L33.05 0L25.35 -27.95Q24.35 -31.4 24.2 -32.2Q23.6 -29.65 23.1 -27.9L15.35 0L10.3 0" />
</g>
<g id="PathID_26" transform="matrix(0.515279, -0.00899423, 0.00899423, 0.515279, 264.95, 306.65)" opacity="1">
</g>
<g id="PathID_27" transform="matrix(0.497797, -0.133384, 0.133384, 0.497797, 295.8, 304.9)" opacity="1">
<path style="fill:#FF0000;fill-opacity:1" d="M3.75 0L3.75 -36.65L17.45 -36.65Q21.65 -36.65 24.15 -35.5Q26.7 -34.4 28.15 -32.1Q29.6 -29.8 29.6 -27.3Q29.6 -24.95 28.3 -22.85Q27 -20.8 24.45 -19.55Q27.8 -18.55 29.6 -16.2Q31.4 -13.85 31.4 -10.65Q31.4 -8.05 30.3 -5.8Q29.2 -3.6 27.6 -2.4Q26 -1.2 23.6 -0.6Q21.2 0 17.7 0L3.75 0M8.6 -21.3L16.45 -21.3Q19.65 -21.3 21.05 -21.7Q22.9 -22.25 23.85 -23.5Q24.8 -24.8 24.8 -26.7Q24.8 -28.5 23.9 -29.85Q23.05 -31.25 21.4 -31.75Q19.8 -32.3 15.85 -32.3L8.6 -32.3L8.6 -21.3M8.6 -4.35L17.7 -4.35Q20.05 -4.35 21 -4.5Q22.7 -4.8 23.8 -5.5Q24.95 -6.2 25.65 -7.55Q26.4 -8.9 26.4 -10.65Q26.4 -12.7 25.3 -14.2Q24.2 -15.7 22.35 -16.3Q20.5 -16.95 17 -16.95L8.6 -16.95L8.6 -4.35" />
</g>
<g id="PathID_28" transform="matrix(0.497797, -0.133384, 0.133384, 0.497797, 295.8, 304.9)" opacity="1">
</g>
<g id="PathID_29" transform="matrix(0.474389, -0.201366, 0.201366, 0.474389, 316.25, 299.2)" opacity="1">
<path style="fill:#FF0000;fill-opacity:1" d="M1.6 -11L1.6 -15.55L15.45 -15.55L15.45 -11L1.6 -11" />
</g>
<g id="PathID_30" transform="matrix(0.474389, -0.201366, 0.201366, 0.474389, 316.25, 299.2)" opacity="1">
</g>
<g id="PathID_31" transform="matrix(0.446313, -0.257679, 0.257679, 0.446313, 327.35, 294.2)" opacity="1">
<path style="fill:#FF0000;fill-opacity:1" d="M2.4 -31.85L2.4 -36.2L26.15 -36.2L26.15 -32.65Q22.65 -28.95 19.2 -22.75Q15.75 -16.6 13.9 -10.05Q12.55 -5.45 12.2 0L7.55 0Q7.6 -4.3 9.2 -10.4Q10.85 -16.55 13.85 -22.25Q16.9 -27.95 20.35 -31.85L2.4 -31.85" />
</g>
<g id="PathID_32" transform="matrix(0.446313, -0.257679, 0.257679, 0.446313, 327.35, 294.2)" opacity="1">
</g>
<g id="PathID_33" transform="matrix(0.400508, -0.324325, 0.324325, 0.400508, 343.4, 284.4)" opacity="1">
<path style="fill:#FF0000;fill-opacity:1" d="M2.15 -9.75L6.65 -10.35Q7.4 -6.5 9.25 -4.8Q11.1 -3.15 13.8 -3.15Q17 -3.15 19.15 -5.3Q21.35 -7.5 21.35 -10.75Q21.35 -13.85 19.3 -15.85Q17.3 -17.9 14.15 -17.9Q12.9 -17.9 11 -17.4L11.5 -21.35L12.2 -21.3Q15.1 -21.3 17.4 -22.75Q19.7 -24.25 19.7 -27.35Q19.7 -29.85 18 -31.45Q16.35 -33.1 13.7 -33.1Q11.05 -33.1 9.3 -31.45Q7.55 -29.8 7.1 -26.5L2.6 -27.3Q3.4 -31.8 6.3 -34.3Q9.25 -36.8 13.6 -36.8Q16.6 -36.8 19.1 -35.5Q21.65 -34.2 23 -31.95Q24.35 -29.75 24.35 -27.3Q24.35 -24.9 23.05 -22.95Q21.8 -21 19.3 -19.9Q22.55 -19.15 24.35 -16.75Q26.15 -14.4 26.15 -10.85Q26.15 -6.05 22.65 -2.7Q19.15 0.6 13.8 0.6Q8.95 0.6 5.75 -2.25Q2.6 -5.15 2.15 -9.75" />
</g>
<g id="PathID_34" transform="matrix(0.400508, -0.324325, 0.324325, 0.400508, 343.4, 284.4)" opacity="1">
</g>
<g id="PathID_35" transform="matrix(0.344842, -0.382986, 0.382986, 0.344842, 357.75, 272.15)" opacity="1">
<path style="fill:#FF0000;fill-opacity:1" d="M16.55 0L16.55 -8.8L0.6 -8.8L0.6 -12.95L17.35 -36.65L21.05 -36.65L21.05 -12.95L26 -12.95L26 -8.8L21.05 -8.8L21.05 0L16.55 0M16.55 -12.95L16.55 -29.5L5 -12.95L16.55 -12.95" />
</g>
<g id="PathID_36" transform="matrix(0.344842, -0.382986, 0.382986, 0.344842, 357.75, 272.15)" opacity="1">
</g>
<g id="PathID_37" transform="matrix(0.280684, -0.432215, 0.432215, 0.280684, 369.95, 257.85)" opacity="1">
<path style="fill:#FF0000;fill-opacity:1" d="M2.15 -18.05Q2.15 -24.55 3.45 -28.5Q4.8 -32.5 7.45 -34.65Q10.1 -36.8 14.1 -36.8Q17.05 -36.8 19.25 -35.6Q21.5 -34.4 22.95 -32.15Q24.4 -29.95 25.2 -26.7Q26.05 -23.5 26.05 -18.05Q26.05 -11.6 24.7 -7.6Q23.4 -3.65 20.75 -1.5Q18.1 0.6 14.1 0.6Q8.8 0.6 5.75 -3.15Q2.15 -7.75 2.15 -18.05M6.8 -18.05Q6.8 -9 8.9 -6.05Q11 -3.1 14.1 -3.1Q17.15 -3.1 19.25 -6.05Q21.4 -9.05 21.4 -18.05Q21.4 -27.1 19.3 -30.05Q17.2 -33.05 14.05 -33.05Q10.95 -33.05 9.1 -30.4Q6.8 -27.05 6.8 -18.05" />
</g>
<g id="PathID_38" transform="matrix(0.280684, -0.432215, 0.432215, 0.280684, 369.95, 257.85)" opacity="1">
</g>
<g id="PathID_39" transform="matrix(0.209615, -0.470803, 0.470803, 0.209615, 379.8, 241.75)" opacity="1">
<path style="fill:#FF0000;fill-opacity:1" d="M2.15 -18.05Q2.15 -24.55 3.45 -28.5Q4.8 -32.5 7.45 -34.65Q10.1 -36.8 14.1 -36.8Q17.05 -36.8 19.25 -35.6Q21.5 -34.4 22.95 -32.15Q24.4 -29.95 25.2 -26.7Q26.05 -23.5 26.05 -18.05Q26.05 -11.6 24.7 -7.6Q23.4 -3.65 20.75 -1.5Q18.1 0.6 14.1 0.6Q8.8 0.6 5.75 -3.15Q2.15 -7.75 2.15 -18.05M6.8 -18.05Q6.8 -9 8.9 -6.05Q11 -3.1 14.1 -3.1Q17.15 -3.1 19.25 -6.05Q21.4 -9.05 21.4 -18.05Q21.4 -27.1 19.3 -30.05Q17.2 -33.05 14.05 -33.05Q10.95 -33.05 9.1 -30.4Q6.8 -27.05 6.8 -18.05" />
</g>
<g id="PathID_40" transform="matrix(0.209615, -0.470803, 0.470803, 0.209615, 379.8, 241.75)" opacity="1">
</g>
<g id="PathID_41" transform="matrix(0.133384, -0.497797, 0.497797, 0.133384, 387, 224.35)" opacity="1">
<path style="fill:#FF0000;fill-opacity:1" d="M16.55 0L16.55 -8.8L0.6 -8.8L0.6 -12.95L17.35 -36.65L21.05 -36.65L21.05 -12.95L26 -12.95L26 -8.8L21.05 -8.8L21.05 0L16.55 0M16.55 -12.95L16.55 -29.5L5 -12.95L16.55 -12.95" />
</g>
<g id="PathID_42" transform="matrix(0.133384, -0.497797, 0.497797, 0.133384, 387, 224.35)" opacity="1">
</g>
<g id="PathID_43" transform="matrix(0.026198, -0.499887, 0.499887, 0.026198, 174.15, 199.4)" opacity="1">
<path style="fill:#FF0000;fill-opacity:1" d="M10.3 0L0.65 -36.65L5.65 -36.65L11.2 -12.6Q12.1 -8.85 12.75 -5.1L14.4 -11.85L21.4 -36.65L27.25 -36.65L32.5 -18.1Q34.45 -11.2 35.35 -5.1L37.15 -13.05L42.95 -36.65L47.85 -36.65L37.75 0L33.05 0L25.35 -27.95Q24.35 -31.4 24.2 -32.2Q23.6 -29.65 23.1 -27.9L15.35 0L10.3 0" />
</g>
<g id="PathID_44" transform="matrix(0.026198, -0.499887, 0.499887, 0.026198, 174.15, 199.4)" opacity="1">
</g>
<g id="PathID_45" transform="matrix(0.1211, -0.485704, 0.485704, 0.1211, 175.1, 176.2)" opacity="1">
<path style="fill:#FF0000;fill-opacity:1" d="M-0.05 0L14 -36.65L19.3 -36.65L34.25 0L28.75 0L24.5 -11.1L9.1 -11.1L5.1 0L-0.05 0M10.45 -15.05L22.95 -15.05L19.15 -25.2Q17.35 -29.8 16.5 -32.85Q15.8 -29.25 14.5 -25.75L10.45 -15.05" />
</g>
<g id="PathID_46" transform="matrix(0.1211, -0.485704, 0.485704, 0.1211, 175.1, 176.2)" opacity="1">
</g>
<g id="PathID_47" transform="matrix(0.211551, -0.453673, 0.453673, 0.211551, 179.2, 159.65)" opacity="1">
<path style="fill:#FF0000;fill-opacity:1" d="M4.05 0L4.05 -36.65L20.3 -36.65Q25.2 -36.65 27.75 -35.65Q30.3 -34.65 31.8 -32.15Q33.35 -29.65 33.35 -26.65Q33.35 -22.75 30.8 -20.05Q28.3 -17.4 23 -16.7Q24.9 -15.75 25.9 -14.85Q28.05 -12.9 29.95 -9.95L36.3 0L30.25 0L25.4 -7.6Q23.25 -10.9 21.85 -12.65Q20.5 -14.4 19.4 -15.1Q18.35 -15.8 17.2 -16.1Q16.4 -16.3 14.5 -16.3L8.9 -16.3L8.9 0L4.05 0M8.9 -20.5L19.3 -20.5Q22.65 -20.5 24.5 -21.15Q26.4 -21.85 27.35 -23.35Q28.35 -24.85 28.35 -26.65Q28.35 -29.25 26.45 -30.9Q24.55 -32.6 20.5 -32.6L8.9 -32.6L8.9 -20.5" />
</g>
<g id="PathID_48" transform="matrix(0.211551, -0.453673, 0.453673, 0.211551, 179.2, 159.65)" opacity="1">
</g>
<g id="PathID_49" transform="matrix(0.287117, -0.410045, 0.410045, 0.287117, 186.85, 142.8)" opacity="1">
<path style="fill:#FF0000;fill-opacity:1" d="M3.95 0L3.95 -36.65L16.55 -36.65Q20.85 -36.65 23.1 -36.1Q26.25 -35.4 28.45 -33.5Q31.35 -31.05 32.8 -27.2Q34.25 -23.4 34.25 -18.5Q34.25 -14.35 33.25 -11.1Q32.3 -7.9 30.75 -5.75Q29.25 -3.65 27.4 -2.45Q25.6 -1.25 23.05 -0.6Q20.5 0 17.15 0L3.95 0M8.8 -4.35L16.6 -4.35Q20.25 -4.35 22.3 -5Q24.35 -5.65 25.6 -6.9Q27.3 -8.6 28.25 -11.5Q29.25 -14.45 29.25 -18.55Q29.25 -24.3 27.35 -27.4Q25.45 -30.5 22.75 -31.55Q20.8 -32.3 16.5 -32.3L8.8 -32.3L8.8 -4.35" />
</g>
<g id="PathID_50" transform="matrix(0.287117, -0.410045, 0.410045, 0.287117, 186.85, 142.8)" opacity="1">
</g>
<g id="PathID_51" transform="matrix(0.383461, -0.321762, 0.321762, 0.383461, 202.15, 122.3)" opacity="1">
<path style="fill:#FF0000;fill-opacity:1" d="M3.9 0L3.9 -36.65L8.85 -36.65L28.15 -7.85L28.15 -36.65L32.8 -36.65L32.8 0L27.8 0L8.55 -28.75L8.55 0L3.9 0" />
</g>
<g id="PathID_52" transform="matrix(0.383461, -0.321762, 0.321762, 0.383461, 202.15, 122.3)" opacity="1">
</g>
<g id="PathID_53" transform="matrix(0.433509, -0.250286, 0.250286, 0.433509, 216.25, 110.4)" opacity="1">
<path style="fill:#FF0000;fill-opacity:1" d="M2.15 -18.05Q2.15 -24.55 3.45 -28.5Q4.8 -32.5 7.45 -34.65Q10.1 -36.8 14.1 -36.8Q17.05 -36.8 19.25 -35.6Q21.5 -34.4 22.95 -32.15Q24.4 -29.95 25.2 -26.7Q26.05 -23.5 26.05 -18.05Q26.05 -11.6 24.7 -7.6Q23.4 -3.65 20.75 -1.5Q18.1 0.6 14.1 0.6Q8.8 0.6 5.75 -3.15Q2.15 -7.75 2.15 -18.05M6.8 -18.05Q6.8 -9 8.9 -6.05Q11 -3.1 14.1 -3.1Q17.15 -3.1 19.25 -6.05Q21.4 -9.05 21.4 -18.05Q21.4 -27.1 19.3 -30.05Q17.2 -33.05 14.05 -33.05Q10.95 -33.05 9.1 -30.4Q6.8 -27.05 6.8 -18.05" />
</g>
<g id="PathID_54" transform="matrix(0.433509, -0.250286, 0.250286, 0.433509, 216.25, 110.4)" opacity="1">
</g>
<g id="PathID_55" transform="matrix(0.457296, -0.203601, 0.203601, 0.457296, 228.5, 103)" opacity="1">
<path style="fill:#FF0000;fill-opacity:1" d="M1.6 -11L1.6 -15.55L15.45 -15.55L15.45 -11L1.6 -11" />
</g>
<g id="PathID_56" transform="matrix(0.457296, -0.203601, 0.203601, 0.457296, 228.5, 103)" opacity="1">
</g>
<g id="PathID_57" transform="matrix(0.4787, -0.146353, 0.146353, 0.4787, 236.3, 99.5)" opacity="1">
<path style="fill:#FF0000;fill-opacity:1" d="M16.55 0L16.55 -8.8L0.6 -8.8L0.6 -12.95L17.35 -36.65L21.05 -36.65L21.05 -12.95L26 -12.95L26 -8.8L21.05 -8.8L21.05 0L16.55 0M16.55 -12.95L16.55 -29.5L5 -12.95L16.55 -12.95" />
</g>
<g id="PathID_58" transform="matrix(0.4787, -0.146353, 0.146353, 0.4787, 236.3, 99.5)" opacity="1">
</g>
<g id="PathID_59" transform="matrix(0.49441, -0.0783069, 0.0783069, 0.49441, 249.85, 95.15)" opacity="1">
<path style="fill:#FF0000;fill-opacity:1" d="M25.8 -4.35L25.8 0L1.5 0Q1.45 -1.6 2 -3.1Q2.95 -5.6 5 -8Q7.05 -10.4 10.9 -13.5Q16.85 -18.45 18.95 -21.3Q21.1 -24.15 21.1 -26.7Q21.1 -29.35 19.15 -31.2Q17.25 -33.05 14.15 -33.05Q10.9 -33.05 8.95 -31.1Q7 -29.15 7 -25.7L2.35 -26.2Q2.8 -31.35 5.9 -34.05Q9 -36.8 14.25 -36.8Q19.55 -36.8 22.65 -33.85Q25.75 -30.95 25.75 -26.6Q25.75 -24.4 24.8 -22.25Q23.9 -20.15 21.8 -17.8Q19.75 -15.45 14.9 -11.35Q10.8 -7.95 9.65 -6.75Q8.5 -5.55 7.75 -4.35L25.8 -4.35" />
</g>
<g id="PathID_60" transform="matrix(0.49441, -0.0783069, 0.0783069, 0.49441, 249.85, 95.15)" opacity="1">
</g>
<g id="PathID_61" transform="matrix(0.499887, -0.026198, 0.026198, 0.499887, 263.95, 92.75)" opacity="1">
<path style="fill:#FF0000;fill-opacity:1" d="M4.55 0L4.55 -5.15L9.7 -5.15L9.7 0Q9.7 2.85 8.65 4.55Q7.65 6.3 5.5 7.25L4.25 5.3Q5.65 4.7 6.3 3.5Q7 2.3 7.1 0L4.55 0" />
</g>
<g id="PathID_62" transform="matrix(0.499887, -0.026198, 0.026198, 0.499887, 263.95, 92.75)" opacity="1">
</g>
<g id="PathID_63" transform="matrix(0.499887, 0.026198, -0.026198, 0.499887, 271.1, 92.4)" opacity="1">
<path style="fill:#FF0000;fill-opacity:1" d="M30.1 -12.85L34.95 -11.65Q33.4 -5.65 29.45 -2.5Q25.5 0.6 19.75 0.6Q13.85 0.6 10.1 -1.8Q6.4 -4.2 4.45 -8.75Q2.55 -13.35 2.55 -18.6Q2.55 -24.35 4.7 -28.6Q6.9 -32.85 10.9 -35.05Q14.95 -37.3 19.8 -37.3Q25.3 -37.3 29.05 -34.5Q32.8 -31.7 34.3 -26.6L29.5 -25.5Q28.2 -29.5 25.75 -31.3Q23.35 -33.15 19.7 -33.15Q15.5 -33.15 12.65 -31.1Q9.8 -29.1 8.65 -25.65Q7.55 -22.25 7.55 -18.65Q7.55 -13.95 8.9 -10.45Q10.25 -7 13.1 -5.25Q16 -3.55 19.35 -3.55Q23.45 -3.55 26.25 -5.9Q29.1 -8.25 30.1 -12.85" />
</g>
<g id="PathID_64" transform="matrix(0.499887, 0.026198, -0.026198, 0.499887, 271.1, 92.4)" opacity="1">
</g>
<g id="PathID_65" transform="matrix(0.485704, 0.1211, -0.1211, 0.485704, 289.5, 93.65)" opacity="1">
<path style="fill:#FF0000;fill-opacity:1" d="M4.15 0L4.15 -36.65L9 -36.65L9 -21.65L28 -21.65L28 -36.65L32.85 -36.65L32.85 0L28 0L28 -17.3L9 -17.3L9 0L4.15 0" />
</g>
<g id="PathID_66" transform="matrix(0.485704, 0.1211, -0.1211, 0.485704, 289.5, 93.65)" opacity="1">
</g>
<g id="PathID_67" transform="matrix(0.457296, 0.203601, -0.203601, 0.457296, 307.4, 98.35)" opacity="1">
<path style="fill:#FF0000;fill-opacity:1" d="M4.05 0L4.05 -36.65L30.55 -36.65L30.55 -32.3L8.9 -32.3L8.9 -21.15L29.15 -21.15L29.15 -16.8L8.9 -16.8L8.9 -4.35L31.4 -4.35L31.4 0L4.05 0" />
</g>
<g id="PathID_68" transform="matrix(0.457296, 0.203601, -0.203601, 0.457296, 307.4, 98.35)" opacity="1">
</g>
<g id="PathID_69" transform="matrix(0.410045, 0.287117, -0.287117, 0.410045, 322.85, 105.55)" opacity="1">
<path style="fill:#FF0000;fill-opacity:1" d="M30.1 -12.85L34.95 -11.65Q33.4 -5.65 29.45 -2.5Q25.5 0.6 19.75 0.6Q13.85 0.6 10.1 -1.8Q6.4 -4.2 4.45 -8.75Q2.55 -13.35 2.55 -18.6Q2.55 -24.35 4.7 -28.6Q6.9 -32.85 10.9 -35.05Q14.95 -37.3 19.8 -37.3Q25.3 -37.3 29.05 -34.5Q32.8 -31.7 34.3 -26.6L29.5 -25.5Q28.2 -29.5 25.75 -31.3Q23.35 -33.15 19.7 -33.15Q15.5 -33.15 12.65 -31.1Q9.8 -29.1 8.65 -25.65Q7.55 -22.25 7.55 -18.65Q7.55 -13.95 8.9 -10.45Q10.25 -7 13.1 -5.25Q16 -3.55 19.35 -3.55Q23.45 -3.55 26.25 -5.9Q29.1 -8.25 30.1 -12.85" />
</g>
<g id="PathID_70" transform="matrix(0.410045, 0.287117, -0.287117, 0.410045, 322.85, 105.55)" opacity="1">
</g>
<g id="PathID_71" transform="matrix(0.353959, 0.353959, -0.353959, 0.353959, 338, 116.15)" opacity="1">
<path style="fill:#FF0000;fill-opacity:1" d="M3.75 0L3.75 -36.65L8.6 -36.65L8.6 -18.5L26.75 -36.65L33.35 -36.65L18 -21.75L34.05 0L27.65 0L14.6 -18.5L8.6 -12.7L8.6 0L3.75 0" />
</g>
<g id="PathID_72" transform="matrix(0.353959, 0.353959, -0.353959, 0.353959, 338, 116.15)" opacity="1">
</g>
<g id="PathID_73" transform="matrix(0.257814, 0.429075, -0.429075, 0.257814, 354.3, 133.95)" opacity="1">
<path style="fill:#FF0000;fill-opacity:1" d="M3.95 0L3.95 -36.65L17.75 -36.65Q21.4 -36.65 23.3 -36.3Q26 -35.85 27.8 -34.55Q29.65 -33.3 30.75 -31Q31.9 -28.75 31.9 -26.05Q31.9 -21.35 28.9 -18.1Q25.95 -14.9 18.15 -14.9L8.8 -14.9L8.8 0L3.95 0M8.8 -19.25L18.25 -19.25Q22.95 -19.25 24.9 -20.95Q26.9 -22.7 26.9 -25.85Q26.9 -28.15 25.7 -29.8Q24.55 -31.45 22.65 -31.95Q21.45 -32.3 18.15 -32.3L8.8 -32.3L8.8 -19.25" />
</g>
<g id="PathID_74" transform="matrix(0.257814, 0.429075, -0.429075, 0.257814, 354.3, 133.95)" opacity="1">
</g>
<g id="PathID_75" transform="matrix(0.179389, 0.467325, -0.467325, 0.179389, 363, 148.6)" opacity="1">
<path style="fill:#FF0000;fill-opacity:1" d="M2.5 -17.85Q2.5 -26.95 7.4 -32.1Q12.3 -37.3 20.05 -37.3Q25.1 -37.3 29.15 -34.85Q33.25 -32.45 35.4 -28.1Q37.55 -23.75 37.55 -18.25Q37.55 -12.7 35.3 -8.3Q33.05 -3.9 28.9 -1.65Q24.8 0.6 20 0.6Q14.85 0.6 10.75 -1.85Q6.7 -4.35 4.6 -8.65Q2.5 -13 2.5 -17.85M7.5 -17.75Q7.5 -11.15 11.05 -7.35Q14.6 -3.55 20 -3.55Q25.45 -3.55 29 -7.35Q32.55 -11.2 32.55 -18.3Q32.55 -22.75 31 -26.05Q29.5 -29.4 26.6 -31.25Q23.7 -33.1 20.05 -33.1Q14.9 -33.1 11.2 -29.55Q7.5 -26 7.5 -17.75" />
</g>
<g id="PathID_76" transform="matrix(0.179389, 0.467325, -0.467325, 0.179389, 363, 148.6)" opacity="1">
</g>
<g id="PathID_77" transform="matrix(0.0869235, 0.492968, -0.492968, 0.0869235, 369.85, 167.3)" opacity="1">
<path style="fill:#FF0000;fill-opacity:1" d="M2.35 -11.8L6.95 -12.2Q7.25 -9.45 8.4 -7.65Q9.6 -5.9 12.1 -4.8Q14.6 -3.75 17.7 -3.75Q20.45 -3.75 22.55 -4.55Q24.65 -5.4 25.7 -6.8Q26.75 -8.25 26.75 -9.95Q26.75 -11.65 25.75 -12.9Q24.75 -14.2 22.45 -15.1Q21 -15.65 15.95 -16.85Q10.95 -18.1 8.95 -19.15Q6.3 -20.55 5 -22.6Q3.75 -24.65 3.75 -27.15Q3.75 -29.95 5.3 -32.35Q6.85 -34.75 9.85 -36Q12.9 -37.3 16.6 -37.3Q20.65 -37.3 23.75 -35.95Q26.85 -34.65 28.5 -32.1Q30.2 -29.55 30.35 -26.35L25.7 -26Q25.3 -29.4 23.15 -31.15Q21 -32.95 16.8 -32.95Q12.45 -32.95 10.45 -31.3Q8.45 -29.7 8.45 -27.45Q8.45 -25.45 9.85 -24.2Q11.25 -22.95 17.1 -21.6Q23 -20.25 25.2 -19.25Q28.4 -17.8 29.9 -15.5Q31.45 -13.25 31.45 -10.35Q31.45 -7.4 29.75 -4.8Q28.1 -2.25 24.95 -0.8Q21.85 0.6 17.9 0.6Q12.95 0.6 9.6 -0.85Q6.25 -2.3 4.35 -5.2Q2.45 -8.1 2.35 -11.8" />
</g>
<g id="PathID_78" transform="matrix(0.0869235, 0.492968, -0.492968, 0.0869235, 369.85, 167.3)" opacity="1">
</g>
<g id="PathID_79" transform="matrix(-2.18807e-008, 0.500573, -0.500573, -2.18807e-008, 372.6, 184.15)" opacity="1">
<path style="fill:#FF0000;fill-opacity:1" d="M13.3 0L13.3 -32.3L1.2 -32.3L1.2 -36.65L30.25 -36.65L30.25 -32.3L18.15 -32.3L18.15 0L13.3 0" />
</g>
<g id="PathID_80" transform="matrix(-2.18807e-008, 0.500573, -0.500573, -2.18807e-008, 372.6, 184.15)" opacity="1">
</g>
<g id="PathID_81" transform="matrix(0.0840754, 0, 7.3501e-009, -0.0840754, 379.6, 202.55)" opacity="1">
<path style="fill:#FF0505;fill-opacity:1" d="M36 -36.1Q51 -21.1 51 0Q51 21.1 36 36Q21.1 51 0 51Q-21.1 51 -36.1 36Q-51 21.1 -51 0Q-51 -21.1 -36.1 -36.1Q-21.1 -51 0 -51Q21.1 -51 36 -36.1" />
</g>
<g id="PathID_82" transform="matrix(0.0840754, 0, 7.3501e-009, -0.0840754, 379.6, 202.55)" opacity="1">
</g>
<g id="PathID_83" transform="matrix(0.0840754, 0, 7.3501e-009, -0.0840754, 163.95, 203.65)" opacity="1">
<path style="fill:#FF0505;fill-opacity:1" d="M36 -36.1Q51 -21.1 51 0Q51 21.1 36 36Q21.1 51 0 51Q-21.1 51 -36.1 36Q-51 21.1 -51 0Q-51 -21.1 -36.1 -36.1Q-21.1 -51 0 -51Q21.1 -51 36 -36.1" />
</g>
<g id="PathID_84" transform="matrix(0.0840754, 0, 7.3501e-009, -0.0840754, 163.95, 203.65)" opacity="1">
</g>
<g id="PathID_85" transform="matrix(0.625, 0, 0, 0.625, 207.35, 198.95)" opacity="1">
<path style="fill:#FF2C05;fill-opacity:1" d="M36.75 -36.85L36.75 -31.35L8.5 -31.35L8.5 -21.2L31.2 -21.2L31.2 -15.65L8.5 -15.65L8.5 0L2.95 0L2.95 -36.85L36.75 -36.85" />
</g>
<g id="PathID_86" transform="matrix(0.625, 0, 0, 0.625, 207.35, 198.95)" opacity="1">
</g>
<g id="PathID_87" transform="matrix(0.625, 0, 0, 0.625, 230.45, 198.95)" opacity="1">
<path style="fill:#FF2C05;fill-opacity:1" d="M2.65 -29.7L8.2 -29.7L8.2 0L2.65 0L2.65 -29.7M8.2 -39.4L8.2 -33.9L2.65 -33.9L2.65 -39.4L8.2 -39.4" />
</g>
<g id="PathID_88" transform="matrix(0.625, 0, 0, 0.625, 230.45, 198.95)" opacity="1">
</g>
<g id="PathID_89" transform="matrix(0.625, 0, 0, 0.625, 237.1, 198.95)" opacity="1">
<path style="fill:#FF2C05;fill-opacity:1" d="M33.05 -29.7L33.05 -28.9L21.3 -15.1L33.05 -0.75L33.05 0L26.5 0L17.7 -10.8L8.9 0L2.35 0L2.35 -0.75L14.05 -15.1L2.35 -28.9L2.35 -29.7L8.9 -29.7L17.7 -19.4L26.5 -29.7L33.05 -29.7" />
</g>
<g id="PathID_90" transform="matrix(0.625, 0, 0, 0.625, 237.1, 198.95)" opacity="1">
</g>
<g id="PathID_91" transform="matrix(0.703125, 0, 0, 0.703125, 260, 199.55)" opacity="1">
<path style="fill:#FF2C05;fill-opacity:1" d="M26.15 -29.7Q27.55 -29.7 28.75 -29.2Q29.95 -28.65 30.85 -27.75Q31.8 -26.8 32.3 -25.6Q32.8 -24.4 32.8 -23.05L32.8 -12.05L8.1 -12.05L8.1 -6.65Q8.1 -6.2 8.45 -5.85Q8.8 -5.5 9.25 -5.5L32.8 -5.5L32.8 0L9.25 0Q7.85 0 6.65 -0.5Q5.45 -1 4.55 -1.95Q3.6 -2.85 3.1 -4.05Q2.6 -5.25 2.6 -6.65L2.6 -23.05Q2.6 -24.4 3.1 -25.6Q3.6 -26.8 4.55 -27.75Q5.45 -28.65 6.65 -29.2Q7.85 -29.7 9.25 -29.7L26.15 -29.7M27.3 -17.6L27.3 -23.05Q27.3 -23.5 26.95 -23.85Q26.6 -24.15 26.15 -24.15L9.25 -24.15Q8.8 -24.15 8.45 -23.85Q8.1 -23.5 8.1 -23.05L8.1 -17.6L27.3 -17.6" />
</g>
<g id="PathID_92" transform="matrix(0.703125, 0, 0, 0.703125, 260, 199.55)" opacity="1">
</g>
<g id="PathID_93" transform="matrix(0.703125, 0, 0, 0.703125, 284.9, 199.55)" opacity="1">
<path style="fill:#FF2C05;fill-opacity:1" d="M26.3 -29.7Q27.7 -29.7 28.9 -29.2Q30.1 -28.65 31 -27.75Q31.95 -26.8 32.45 -25.6Q32.95 -24.4 32.95 -23.05L32.95 0L27.45 0L27.45 -23.05Q27.45 -23.5 27.1 -23.85Q26.75 -24.15 26.3 -24.15L9.4 -24.15Q8.95 -24.15 8.6 -23.85Q8.3 -23.5 8.3 -23.05L8.3 0L2.75 0L2.75 -29.7L26.3 -29.7" />
</g>
<g id="PathID_94" transform="matrix(0.703125, 0, 0, 0.703125, 284.9, 199.55)" opacity="1">
</g>
<g id="PathID_95" transform="matrix(0.703125, 0, 0, 0.703125, 309.95, 199.55)" opacity="1">
<path style="fill:#FF2C05;fill-opacity:1" d="M2.65 -29.7L8.2 -29.7L8.2 0L2.65 0L2.65 -29.7M8.2 -39.4L8.2 -33.9L2.65 -33.9L2.65 -39.4L8.2 -39.4" />
</g>
<g id="PathID_96" transform="matrix(0.703125, 0, 0, 0.703125, 309.95, 199.55)" opacity="1">
</g>
<g id="PathID_97" transform="matrix(0.703125, 0, 0, 0.703125, 317.4, 199.55)" opacity="1">
<path style="fill:#FF2C05;fill-opacity:1" d="M33.05 -29.7L33.05 -28.9L21.3 -15.1L33.05 -0.75L33.05 0L26.5 0L17.7 -10.8L8.9 0L2.35 0L2.35 -0.75L14.05 -15.1L2.35 -28.9L2.35 -29.7L8.9 -29.7L17.7 -19.4L26.5 -29.7L33.05 -29.7" />
</g>
<g id="PathID_98" transform="matrix(0.703125, 0, 0, 0.703125, 317.4, 199.55)" opacity="1">
</g>
</svg>
