<?xml version="1.0" encoding="utf-8"?>
<svg version="1.1" id="Layer_1"
xmlns="http://www.w3.org/2000/svg"
xmlns:xlink="http://www.w3.org/1999/xlink"
width="620px" height="620px"
xml:space="preserve">
<g id="PathID_1" transform="matrix(-0.0202339, -2.3653, 2.3653, -0.0202339, -1483.35, 1051.25)" opacity="1">
<linearGradient
id="LinearGradID_1" gradientUnits="userSpaceOnUse" gradientTransform="matrix(-5.73338e-009, 0.131165, -0.131165, -5.73338e-009, 306.95, 761.95)" spreadMethod ="pad" x1="-819.2" y1="0" x2="819.2" y2="0" >
<stop  offset="0" style="stop-color:#0A0521;stop-opacity:1" />
<stop  offset="0.505882" style="stop-color:#514586;stop-opacity:1" />
<stop  offset="1" style="stop-color:#290DA6;stop-opacity:1" />
</linearGradient>
<path style="fill:url(#LinearGradID_1) " d="M269.55 702.6Q262.7 705.3 257.25 710.1Q251.8 714.9 248.35 721.75Q244.9 728.55 244.5 737.25L244.5 784.5Q244.95 791.65 247.55 798.55Q250.2 805.5 255.05 811.05Q259.95 816.65 267.1 820.25Q274.3 823.9 283.9 824.45L284.1 824.45L285.05 824.45L287.35 824.45L291.5 824.4Q306.65 824.05 314 831.05Q321.3 838 322.45 846.55Q323.55 855.05 319.25 862.2Q315 869.4 306.95 869.4L243.5 869.4Q234.35 869.4 226.35 865.9Q218.3 862.45 212.35 856.5Q206.4 850.5 202.95 842.5Q199.5 834.5 199.5 825.4L199.5 698.5Q199.5 689.35 202.95 681.35Q206.4 673.3 212.35 667.35Q218.35 661.4 226.35 657.95Q234.35 654.5 243.5 654.5L370.4 654.5Q379.5 654.5 387.5 657.95Q395.55 661.4 401.5 667.35Q407.45 673.35 410.9 681.35Q414.4 689.35 414.4 698.5L414.4 706.55L414.4 725.8L414.4 748.9L414.4 768.5Q414.4 779 407.5 783.8Q400.6 788.65 392.3 787.25Q383.95 785.85 376.85 778Q369.75 770.15 369.3 755.25Q369.05 748.5 369.05 743.55L369.1 735.45L369.3 730.65L369.4 729.15Q369.5 722.25 367 716.7Q364.55 711.15 359.9 707.3Q355.25 703.45 348.75 701.4Q342.2 699.4 334.25 699.5L283.75 699.5Q276.45 699.9 269.55 702.6" />
</g>
<g id="PathID_2" transform="matrix(-0.0202339, -2.3653, 2.3653, -0.0202339, -1483.35, 1051.25)" opacity="1">
</g>
<g id="PathID_3" transform="matrix(0.839764, 0, 0, 0.839764, 397.9, 51.3)" opacity="1">
<path style="fill:#0D0725;fill-opacity:1" d="M196.65 147.55L147.55 147.55L147.55 98.25L98.25 98.25L98.25 147.55L49.15 147.55L49.15 196.7L0 196.7L0 147.55L49.15 147.55L49.15 98.25L98.25 98.25L98.25 49.15L49.15 49.15L49.15 0L196.65 0L196.65 147.55" />
</g>
<g id="PathID_4" transform="matrix(0.839764, 0, 0, 0.839764, 397.9, 51.3)" opacity="1">
</g>
</svg>
