<?xml version="1.0" encoding="utf-8"?>
<svg version="1.1" id="Layer_1"
xmlns="http://www.w3.org/2000/svg"
xmlns:xlink="http://www.w3.org/1999/xlink"
width="300px" height="400px"
xml:space="preserve">
<g id="PathID_1" transform="matrix(0.702567, 0, 0, 0.702567, -25.95, 18.05)" opacity="1">
<path style="fill:#000000;fill-opacity:1" d="M337.25 384L336.4 386.4L335.5 388.75L334.55 391.1L333.6 393.4L341.4 397.9Q342.9 398.75 343.9 400.1Q344.9 401.5 345.35 403.05Q345.75 404.65 345.55 406.35Q345.35 408 344.5 409.55Q343.9 410.55 343.05 411.35Q342.25 412.15 341.3 412.7Q340.3 413.2 339.25 413.5Q338.2 413.8 337.1 413.8L336 413.7L334.9 413.5L333.85 413.15L332.85 412.7L325 408.2Q322.95 410.95 320.75 413.6Q318.5 416.2 316.1 418.65Q313.65 421.05 311.05 423.3Q308.4 425.5 305.65 427.55L310.15 435.4Q311 436.9 311.2 438.6Q311.4 440.3 311 441.85Q310.55 443.45 309.55 444.8Q308.55 446.15 307.05 447.05L306 447.5L304.95 447.85L303.85 448.05L302.8 448.15Q301.65 448.15 300.6 447.85Q299.55 447.55 298.6 447Q297.6 446.45 296.8 445.7Q296 444.9 295.45 443.9L290.95 436.1Q287.85 437.5 284.65 438.65Q281.45 439.8 278.15 440.7Q274.8 441.6 271.4 442.25Q268 442.9 264.5 443.25L264.5 452.2Q264.5 453.95 263.8 455.5Q263.15 457.05 262 458.2Q260.85 459.35 259.3 460Q257.75 460.7 256 460.7Q254.2 460.7 252.65 460Q251.1 459.35 249.95 458.2Q248.8 457.05 248.15 455.5Q247.5 453.95 247.5 452.2L247.5 443.25Q243.95 442.85 240.55 442.25Q237.15 441.6 233.8 440.7Q230.5 439.8 227.3 438.6Q224.1 437.45 221.05 436.1L216.55 443.9Q215.95 444.9 215.15 445.7Q214.35 446.5 213.4 447.05Q212.4 447.55 211.35 447.85Q210.3 448.15 209.2 448.15L208.1 448.05L207 447.85L205.95 447.5L204.95 447.05Q203.4 446.15 202.4 444.8Q201.4 443.4 201 441.85Q200.55 440.25 200.75 438.55Q200.95 436.9 201.85 435.4L206.35 427.55Q203.55 425.5 200.9 423.25Q198.3 421.05 195.85 418.6Q193.45 416.2 191.2 413.6Q189 410.95 187 408.2L179.15 412.7L178.1 413.15L177.05 413.5L175.95 413.7L174.9 413.8Q173.75 413.8 172.7 413.5Q171.6 413.2 170.65 412.65Q169.7 412.1 168.85 411.35Q168.05 410.55 167.5 409.55Q166.6 408 166.4 406.3Q166.2 404.6 166.65 403.05Q167.05 401.45 168.05 400.1Q169.05 398.75 170.6 397.9L178.4 393.4Q176.95 390.3 175.8 387.1Q174.65 383.9 173.75 380.6Q172.85 377.25 172.2 373.85Q171.55 370.45 171.25 366.95L162.3 366.95Q160.5 366.95 158.95 366.25Q157.4 365.6 156.25 364.45Q155.1 363.3 154.45 361.75Q153.8 360.2 153.8 358.45Q153.8 356.65 154.45 355.1Q155.1 353.55 156.25 352.4Q157.4 351.25 158.95 350.6Q160.5 349.95 162.3 349.95L171.25 349.95Q171.6 346.4 172.2 343Q172.85 339.6 173.75 336.25Q174.65 332.95 175.85 329.75Q177 326.55 178.4 323.5L170.6 319Q169.05 318.1 168.05 316.75Q167.05 315.35 166.65 313.8Q166.2 312.2 166.4 310.5Q166.6 308.85 167.5 307.35Q168.35 305.8 169.7 304.8Q171.1 303.8 172.65 303.4Q174.25 302.95 175.95 303.15Q177.6 303.35 179.15 304.25L187 308.75Q189 305.95 191.2 303.3Q193.45 300.7 195.85 298.25Q198.3 295.85 200.9 293.6Q203.55 291.4 206.35 289.4L201.85 281.55Q200.95 280 200.75 278.3Q200.55 276.6 201 275.05Q201.4 273.45 202.4 272.1Q203.4 270.75 204.95 269.9Q206.45 269 208.15 268.8Q209.85 268.6 211.4 269.05Q213 269.45 214.35 270.45Q215.7 271.45 216.6 273L221.1 280.8Q224.15 279.35 227.35 278.2Q230.55 277.05 233.85 276.15Q237.2 275.25 240.6 274.6Q244 273.95 247.55 273.65L247.55 264.7Q247.55 262.9 248.2 261.35Q248.85 259.8 250 258.65Q251.15 257.5 252.7 256.85Q254.25 256.2 256.05 256.2Q257.8 256.2 259.35 256.85Q260.9 257.5 262.05 258.65Q263.2 259.8 263.85 261.35Q264.55 262.9 264.55 264.7L264.55 273.65Q268.05 274 271.45 274.6Q274.85 275.25 278.2 276.15Q281.5 277.05 284.7 278.25Q287.9 279.4 291 280.8L295.5 273Q296.35 271.45 297.7 270.45Q299.1 269.45 300.65 269.05Q302.25 268.6 303.95 268.8Q305.6 269 307.15 269.9Q308.65 270.75 309.65 272.1Q310.65 273.5 311.1 275.05Q311.5 276.65 311.3 278.35Q311.1 280 310.25 281.55L305.75 289.4Q308.5 291.4 311.15 293.65Q313.75 295.85 316.2 298.3Q318.6 300.7 320.85 303.3Q323.05 305.95 325.1 308.75L332.95 304.25Q334.45 303.35 336.15 303.15Q337.85 302.95 339.4 303.4Q341 303.8 342.35 304.8Q343.7 305.8 344.6 307.35Q345.45 308.85 345.65 310.55Q345.85 312.25 345.45 313.8Q345 315.4 344 316.75Q343 318.1 341.5 319L333.7 323.5Q335.5 327.5 336.9 331.7Q338.3 335.95 339.3 340.3Q340.25 344.7 340.75 349.25Q341.3 353.8 341.3 358.5L341.25 360.6L341.15 362.75L341.05 364.85L340.9 367L349.85 367Q351.6 367 353.15 367.65Q354.7 368.3 355.85 369.45Q357 370.6 357.65 372.15Q358.35 373.7 358.35 375.5Q358.35 377.25 357.65 378.8Q357 380.35 355.85 381.5Q354.7 382.65 353.15 383.3Q351.6 384 349.85 384L337.25 384M282.5 421.25Q294.95 415.9 304.2 406.6Q313.45 397.35 318.85 384.95Q324.25 372.55 324.25 358.5Q324.25 344.35 318.85 331.95Q313.45 319.5 304.2 310.25Q294.95 300.95 282.5 295.6Q270.1 290.25 256 290.25Q241.85 290.25 229.45 295.6Q217 300.95 207.75 310.25Q198.45 319.5 193.1 331.9Q187.75 344.35 187.75 358.45Q187.75 372.55 193.1 384.95Q198.5 397.35 207.75 406.65Q217.05 415.9 229.45 421.25Q241.9 426.65 256 426.65Q270.1 426.65 282.5 421.25" />
</g>
<g id="PathID_2" transform="matrix(0.702567, 0, 0, 0.702567, -25.95, 18.05)" opacity="1">
</g>
<g id="PathID_3" transform="matrix(0.702567, 0, 0, 0.702567, -25.95, 18.05)" opacity="1">
<path style="fill:#000000;fill-opacity:1" d="M417.6 3.35Q425.35 6.7 431.15 12.45Q436.95 18.25 440.3 26.05Q443.65 33.8 443.65 42.65L443.65 469.25Q443.65 478.05 440.25 485.8Q436.9 493.6 431.1 499.4Q425.3 505.15 417.55 508.5Q409.8 511.9 401 511.9Q399.2 511.9 397.65 511.2Q396.1 510.55 394.95 509.4Q393.8 508.25 393.15 506.7Q392.5 505.15 392.5 503.4Q392.5 501.6 393.15 500.05Q393.8 498.5 394.95 497.35Q396.1 496.2 397.65 495.55Q399.2 494.9 401 494.9Q406.3 494.9 410.95 492.85Q415.6 490.85 419.1 487.35Q422.55 483.9 424.55 479.2Q426.6 474.55 426.6 469.3L426.6 42.65Q426.6 37.3 424.55 32.65Q422.55 28 419.05 24.5Q415.6 21.05 410.9 19.05Q406.25 17.05 401 17.05L110.9 17.05Q105.55 17.05 100.9 19.05Q96.25 21.05 92.75 24.55Q89.3 28 87.3 32.7Q85.3 37.35 85.3 42.65L85.3 469.35Q85.3 474.65 87.3 479.3Q89.3 483.95 92.8 487.45Q96.25 490.9 100.95 492.9Q105.6 494.95 110.9 494.95L366.9 494.95Q368.65 494.95 370.2 495.6Q371.75 496.25 372.9 497.4Q374.05 498.55 374.7 500.1Q375.4 501.65 375.4 503.45Q375.4 505.2 374.7 506.75Q374.05 508.3 372.9 509.45Q371.75 510.6 370.2 511.25Q368.65 511.95 366.9 511.95L110.9 511.95Q102.05 511.95 94.3 508.55Q86.5 505.2 80.7 499.4Q74.95 493.6 71.6 485.85Q68.25 478.1 68.25 469.3L68.25 42.65Q68.25 33.8 71.6 26.05Q74.95 18.25 80.75 12.45Q86.55 6.7 94.3 3.35Q102.05 0 110.9 0L401.05 0Q409.85 0 417.6 3.35" />
</g>
<g id="PathID_4" transform="matrix(0.702567, 0, 0, 0.702567, -25.95, 18.05)" opacity="1">
</g>
<g id="PathID_5" transform="matrix(0.702567, 0, 0, 0.702567, -25.95, 18.05)" opacity="1">
<path style="fill:#000000;fill-opacity:1" d="M279.55 223.2Q277.55 227.9 274.1 231.35Q270.6 234.85 265.95 236.85Q261.3 238.9 256 238.9Q250.65 238.9 246 236.85Q241.35 234.85 237.85 231.35Q234.4 227.9 232.4 223.2Q230.4 218.55 230.4 213.3Q230.4 207.95 232.4 203.3Q234.4 198.65 237.85 195.15Q241.35 191.7 246 189.7Q250.65 187.7 256 187.7Q261.3 187.7 265.95 189.7Q270.6 191.7 274.1 195.2Q277.55 198.65 279.55 203.35Q281.6 208 281.6 213.3Q281.6 218.55 279.55 223.2M248.1 216.6Q248.75 218.15 249.9 219.3Q251.05 220.45 252.6 221.1Q254.15 221.8 255.95 221.8Q257.7 221.8 259.25 221.1Q260.8 220.45 261.95 219.3Q263.1 218.15 263.75 216.6Q264.45 215.05 264.45 213.3Q264.45 211.5 263.75 209.95Q263.1 208.4 261.95 207.25Q260.8 206.1 259.25 205.45Q257.7 204.8 255.95 204.8Q254.15 204.8 252.6 205.45Q251.05 206.1 249.9 207.25Q248.75 208.4 248.1 209.95Q247.45 211.5 247.45 213.3Q247.45 215.05 248.1 216.6" />
</g>
<g id="PathID_6" transform="matrix(0.702567, 0, 0, 0.702567, -25.95, 18.05)" opacity="1">
</g>
<g id="PathID_7" transform="matrix(0.702567, 0, 0, 0.702567, -25.95, 18.05)" opacity="1">
<path style="fill:#000000;fill-opacity:1" d="M358.35 59.7L358.35 162.1Q358.35 163.85 357.65 165.4Q357 166.95 355.85 168.1Q354.7 169.25 353.15 169.9Q351.6 170.6 349.85 170.6L290.15 170.6Q288.35 170.6 286.8 169.9Q285.25 169.25 284.1 168.1Q282.95 166.95 282.3 165.4Q281.65 163.85 281.65 162.1Q281.65 160.3 282.3 158.75Q282.95 157.2 284.1 156.05Q285.25 154.9 286.8 154.25Q288.35 153.6 290.15 153.6L341.35 153.6L341.35 68.25L170.7 68.25L170.7 153.55L240.6 153.55L206.1 98.35Q205.15 96.85 204.9 95.15Q204.65 93.5 205 91.9Q205.4 90.3 206.35 88.9Q207.3 87.5 208.8 86.6Q210.3 85.65 212 85.4Q213.65 85.1 215.25 85.5Q216.85 85.85 218.25 86.8Q219.6 87.8 220.55 89.3L263.25 157.6Q263.85 158.55 264.15 159.65Q264.45 160.75 264.5 161.9Q264.5 163 264.25 164.1Q264 165.2 263.45 166.25Q262.85 167.25 262.05 168.05Q261.25 168.85 260.3 169.4Q259.3 170 258.2 170.3Q257.1 170.6 256 170.6L162.1 170.6Q160.3 170.6 158.75 169.9Q157.2 169.25 156.05 168.1Q154.9 166.95 154.25 165.4Q153.6 163.85 153.6 162.1L153.6 59.7Q153.6 57.9 154.25 56.35Q154.9 54.8 156.05 53.65Q157.2 52.5 158.75 51.85Q160.3 51.2 162.1 51.2L349.9 51.2Q351.65 51.2 353.2 51.85Q354.75 52.5 355.9 53.65Q357.05 54.8 357.7 56.35Q358.4 57.9 358.4 59.7L358.35 59.7" />
</g>
<g id="PathID_8" transform="matrix(0.702567, 0, 0, 0.702567, -25.95, 18.05)" opacity="1">
</g>
<g id="PathID_9" transform="matrix(0.702567, 0, 0, 0.702567, -25.95, 18.05)" opacity="1">
<path style="fill:#000000;fill-opacity:1" d="M169.2 236.85Q164.55 234.85 161.05 231.35Q157.6 227.9 155.6 223.2Q153.6 218.55 153.6 213.3Q153.6 207.95 155.6 203.3Q157.6 198.65 161.05 195.15Q164.55 191.7 169.2 189.7Q173.85 187.7 179.2 187.7Q184.5 187.7 189.15 189.7Q193.8 191.7 197.3 195.2Q200.75 198.65 202.75 203.35Q204.8 208 204.8 213.3Q204.8 218.6 202.75 223.25Q200.75 227.9 197.25 231.4Q193.8 234.85 189.1 236.85Q184.45 238.9 179.2 238.9Q173.85 238.9 169.2 236.85M175.85 205.45Q174.3 206.1 173.15 207.25Q171.95 208.4 171.3 209.95Q170.65 211.5 170.7 213.3Q170.7 215.05 171.35 216.6Q172 218.15 173.15 219.3Q174.3 220.45 175.85 221.1Q177.4 221.8 179.2 221.8Q180.95 221.8 182.5 221.1Q184.05 220.45 185.2 219.3Q186.35 218.15 187 216.6Q187.7 215.05 187.7 213.3Q187.7 211.5 187 209.95Q186.35 208.4 185.2 207.25Q184.05 206.1 182.5 205.45Q180.95 204.8 179.2 204.8Q177.4 204.8 175.85 205.45" />
</g>
<g id="PathID_10" transform="matrix(0.702567, 0, 0, 0.702567, -25.95, 18.05)" opacity="1">
</g>
<g id="PathID_11" transform="matrix(0.702567, 0, 0, 0.702567, -25.95, 18.05)" opacity="1">
<path style="fill:#000000;fill-opacity:1" d="M342.7 189.7Q347.4 191.7 350.85 195.2Q354.35 198.65 356.35 203.35Q358.4 208 358.4 213.3Q358.4 218.6 356.35 223.25Q354.35 227.9 350.9 231.4Q347.4 234.85 342.75 236.85Q338.1 238.9 332.8 238.9Q327.45 238.9 322.8 236.85Q318.15 234.85 314.65 231.35Q311.2 227.9 309.2 223.2Q307.2 218.55 307.2 213.3Q307.2 207.95 309.2 203.3Q311.2 198.65 314.7 195.15Q318.15 191.7 322.85 189.7Q327.5 187.7 332.8 187.7Q338.05 187.7 342.7 189.7M336.1 221.15Q337.65 220.5 338.8 219.3Q339.95 218.15 340.6 216.6Q341.3 215.05 341.3 213.35Q341.3 211.55 340.6 210Q339.95 208.45 338.8 207.3Q337.65 206.15 336.1 205.5Q334.55 204.85 332.8 204.85Q331 204.85 329.45 205.5Q327.9 206.15 326.75 207.3Q325.6 208.45 324.95 210Q324.3 211.55 324.3 213.35Q324.3 215.1 324.95 216.65Q325.6 218.2 326.75 219.35Q327.9 220.5 329.45 221.15Q331 221.85 332.8 221.85Q334.55 221.85 336.1 221.15" />
</g>
<g id="PathID_12" transform="matrix(0.702567, 0, 0, 0.702567, -25.95, 18.05)" opacity="1">
</g>
</svg>
